<?xml version="1.0" encoding="UTF-8" standalone="no"?>
<!-- Generator: Adobe Illustrator 27.0.0, SVG Export Plug-In . SVG Version: 6.00 Build 0)  -->

<svg
   xmlns:dc="http://purl.org/dc/elements/1.1/"
   xmlns:cc="http://creativecommons.org/ns#"
   xmlns:rdf="http://www.w3.org/1999/02/22-rdf-syntax-ns#"
   xmlns:svg="http://www.w3.org/2000/svg"
   xmlns="http://www.w3.org/2000/svg"
   xmlns:sodipodi="http://sodipodi.sourceforge.net/DTD/sodipodi-0.dtd"
   xmlns:inkscape="http://www.inkscape.org/namespaces/inkscape"
   version="1.1"
   id="Layer_1"
   x="0px"
   y="0px"
   viewBox="0 0 415.44099 129.95501"
   xml:space="preserve"
   sodipodi:docname="flexi_logo.svg"
   width="415.44101"
   height="129.955"
   inkscape:version="0.92.5 (2060ec1f9f, 2020-04-08)"
   inkscape:export-filename="/home/daniel/codes/flexi/docs/documentation/userguide/figures/flexi_logo.png"
   inkscape:export-xdpi="231.07974"
   inkscape:export-ydpi="231.07974"><metadata
   id="metadata898"><rdf:RDF><cc:Work
       rdf:about=""><dc:format>image/svg+xml</dc:format><dc:type
         rdf:resource="http://purl.org/dc/dcmitype/StillImage" /><dc:title></dc:title></cc:Work></rdf:RDF></metadata><defs
   id="defs896" /><sodipodi:namedview
   pagecolor="#ffffff"
   bordercolor="#666666"
   borderopacity="1"
   objecttolerance="10"
   gridtolerance="10"
   guidetolerance="10"
   inkscape:pageopacity="0"
   inkscape:pageshadow="2"
   inkscape:window-width="2560"
   inkscape:window-height="1403"
   id="namedview894"
   showgrid="false"
   inkscape:snap-bbox="true"
   inkscape:bbox-paths="true"
   inkscape:snap-bbox-edge-midpoints="true"
   inkscape:bbox-nodes="true"
   inkscape:snap-bbox-midpoints="true"
   inkscape:object-paths="true"
   inkscape:snap-intersection-paths="true"
   inkscape:snap-smooth-nodes="true"
   inkscape:snap-midpoints="true"
   inkscape:snap-object-midpoints="true"
   inkscape:snap-center="true"
   inkscape:zoom="3.0136966"
   inkscape:cx="204.45677"
   inkscape:cy="34.835867"
   inkscape:window-x="0"
   inkscape:window-y="0"
   inkscape:window-maximized="1"
   inkscape:current-layer="Layer_1" />
<style
   type="text/css"
   id="style875">
	.st0{fill:#2B2C7C;}
	.st1{fill:#C96432;}
</style>

<rect
   style="fill:#ffffff;fill-opacity:1;stroke-width:0.98185545"
   id="rect879"
   width="415.44101"
   height="129.955"
   x="0"
   y="0" /><g
   id="g887"
   style="fill:#3687b2;fill-opacity:1"
   transform="translate(-113.35093,-118.00237)">
	<path
   class="st1"
   d="m 189.71,197.39 c 10.7,-0.73 20.88,-9.88 20.71,-20.91 0.03,-6.93 -2.99,-13.81 -8.45,-18.07 -8.11,-6.35 -19.79,-7.33 -29.38,-4.12 -7.27,2.47 -13.43,7.66 -17.58,14.06 -10.72,16.93 -5.8,40.72 8.49,54.12 20.94,20.79 56.01,14.64 74.8,-6.08 9.71,-10.5 15.54,-24.43 16.13,-38.82 0.8,-14.55 -1.86,-29.67 -9.22,-42.48 12.83,17.73 16.58,44.57 9.14,65.21 -10.18,29.87 -44.96,49.54 -75.69,39.82 -16.33,-5.16 -29.38,-18.64 -34.33,-34.98 -4.07,-13.59 -2.93,-28.49 5.1,-40.44 2.27,-3.3 5.02,-6.39 8.08,-8.96 1.48,-1.02 3.39,-2.63 4.99,-3.42 1.44,-1.01 3.82,-1.91 5.42,-2.68 12.09,-4.53 26.92,-3.26 36.84,5.48 9,7.76 11.75,22.68 4.61,32.46 -4.49,6.2 -12.06,10.08 -19.66,9.81 z"
   id="path885"
   style="fill:#3687b2;fill-opacity:1"
   inkscape:connector-curvature="0" />
</g>
<g
   id="g891"
   style="fill:#ffab63;fill-opacity:1"
   transform="translate(-113.35093,-118.00237)">
	<path
   class="st0"
   d="m 191.05,169.6 c -7.45,-0.64 -15.16,2.85 -19.51,8.82 -6.35,8.83 -4.09,22.07 3.96,29.01 5.28,4.71 12.54,6.87 19.51,7.24 18.08,0.96 33.66,-14.45 35.44,-32.02 3.66,-30.64 -21.48,-55.44 -52.04,-52.14 -7.16,0.58 -14.22,2.54 -20.68,5.76 -17.72,8.64 -30.39,26.39 -33.12,45.92 -2.63,17.06 -0.74,35.48 9.04,50.16 -2.55,-2.87 -4.48,-6.23 -6.34,-9.59 -6.38,-12.59 -8.14,-27.21 -6.76,-41.17 2.3,-29.78 27.25,-55.46 57.18,-58.19 25.44,-3.02 49.59,11.37 57.61,35.96 5.18,15.56 3.08,33.93 -7.77,46.61 -7.91,9.59 -20.46,15.18 -32.89,14.12 -17.05,-1.2 -32.25,-13.8 -29.61,-31.99 1.3,-12.28 14.37,-20.9 25.98,-18.5 z"
   id="path889"
   style="fill:#ffab63;fill-opacity:1"
   inkscape:connector-curvature="0" />
</g>
<g
   aria-label="FLEXI"
   style="font-style:normal;font-variant:normal;font-weight:bold;font-stretch:normal;font-size:77.33333588px;line-height:1.25;font-family:'good timing';-inkscape-font-specification:'good timing, Bold';font-variant-ligatures:normal;font-variant-caps:normal;font-variant-numeric:normal;font-feature-settings:normal;text-align:start;letter-spacing:0px;word-spacing:0px;writing-mode:lr-tb;text-anchor:start;fill:#ffab63;fill-opacity:1;stroke:none"
   id="text906"
   transform="translate(6.7587872,4.9998994)"><path
     d="m 210.91028,68.577398 v -11.368 h -28.38134 v 11.368 z M 178.04361,87.756065 V 50.404064 h 33.33067 V 37.489397 h -46.864 v 50.266668 z"
     style="font-style:normal;font-variant:normal;font-weight:bold;font-stretch:normal;font-size:77.33333588px;font-family:'good timing';-inkscape-font-specification:'good timing, Bold';font-variant-ligatures:normal;font-variant-caps:normal;font-variant-numeric:normal;font-feature-settings:normal;text-align:start;writing-mode:lr-tb;text-anchor:start;fill:#ffab63;fill-opacity:1"
     id="path1378"
     inkscape:connector-curvature="0" /><path
     d="m 262.95548,87.756065 v -12.992 h -30.624 V 37.489397 h -13.61067 v 50.266668 z"
     style="font-style:normal;font-variant:normal;font-weight:bold;font-stretch:normal;font-size:77.33333588px;font-family:'good timing';-inkscape-font-specification:'good timing, Bold';font-variant-ligatures:normal;font-variant-caps:normal;font-variant-numeric:normal;font-feature-settings:normal;text-align:start;writing-mode:lr-tb;text-anchor:start;fill:#ffab63;fill-opacity:1"
     id="path1380"
     inkscape:connector-curvature="0" /><path
     d="M 316.4701,67.881398 V 57.132064 h -29.696 v 10.749334 z m 0.61867,19.874667 v -12.992 h -34.8 V 50.404064 h 34.72266 V 37.489397 h -48.256 v 50.266668 z"
     style="font-style:normal;font-variant:normal;font-weight:bold;font-stretch:normal;font-size:77.33333588px;font-family:'good timing';-inkscape-font-specification:'good timing, Bold';font-variant-ligatures:normal;font-variant-caps:normal;font-variant-numeric:normal;font-feature-settings:normal;text-align:start;writing-mode:lr-tb;text-anchor:start;fill:#ffab63;fill-opacity:1"
     id="path1382"
     inkscape:connector-curvature="0" /><path
     d="m 383.67271,87.756065 -22.272,-26.138667 20.33867,-24.128001 h -16.08534 l -12.83733,15.234667 -12.76,-15.234667 h -17.09067 l 20.26133,24.050668 -22.04,26.216 h 16.08534 l 14.46133,-17.322667 14.848,17.322667 z"
     style="font-style:normal;font-variant:normal;font-weight:bold;font-stretch:normal;font-size:77.33333588px;font-family:'good timing';-inkscape-font-specification:'good timing, Bold';font-variant-ligatures:normal;font-variant-caps:normal;font-variant-numeric:normal;font-feature-settings:normal;text-align:start;writing-mode:lr-tb;text-anchor:start;fill:#ffab63;fill-opacity:1"
     id="path1384"
     inkscape:connector-curvature="0" /><path
     d="M 401.92336,87.756065 V 37.489397 h -13.53334 v 50.266668 z"
     style="font-style:normal;font-variant:normal;font-weight:bold;font-stretch:normal;font-size:77.33333588px;font-family:'good timing';-inkscape-font-specification:'good timing, Bold';font-variant-ligatures:normal;font-variant-caps:normal;font-variant-numeric:normal;font-feature-settings:normal;text-align:start;writing-mode:lr-tb;text-anchor:start;fill:#ffab63;fill-opacity:1"
     id="path1386"
     inkscape:connector-curvature="0" /></g>
</svg>